<svg width="328" height="338" viewBox="0 0 328 338" fill="none" xmlns="http://www.w3.org/2000/svg">
<g clip-path="url(#clip0_2036_545)">
<path d="M98.0897 262.043C100.348 262.355 102.549 262.459 104.751 262.424C106.952 262.38 109.146 262.191 111.396 261.782C113.162 261.455 115.065 260.855 116.896 259.754C117.807 259.2 118.702 258.523 119.525 257.699C120.339 256.875 121.089 255.906 121.678 254.796C122.267 253.694 122.694 252.464 122.896 251.215C123.105 249.967 123.097 248.709 122.896 247.548C122.694 246.387 122.299 245.336 121.783 244.462C121.267 243.587 120.638 242.883 119.96 242.363C119.589 241.602 119.162 240.891 118.702 240.221C118.476 239.884 118.235 239.573 117.993 239.252C117.743 238.947 117.492 238.626 117.234 238.349C116.202 237.17 115.049 236.157 113.823 235.263C112.598 234.379 111.283 233.634 109.896 233.036C108.509 232.445 107.041 232.011 105.517 231.752C102.372 231.241 99.114 231.345 95.9447 232.203C95.1545 232.41 94.364 232.687 93.5898 232.992C92.8157 233.313 92.0496 233.678 91.3078 234.102C90.5657 234.534 89.832 235.021 89.1384 235.566C88.4368 236.122 87.7756 236.745 87.1545 237.44C86.2031 238.506 85.5741 239.693 85.2596 240.794C84.9451 241.895 84.9369 242.901 85.1063 243.681C85.1386 243.811 85.1707 243.924 85.2031 244.037C85.0095 244.288 84.8562 244.565 84.695 244.842C84.5417 245.138 84.4047 245.459 84.2919 245.789C84.0741 246.456 83.9611 247.201 84.0336 247.972C84.0902 248.649 84.3161 249.325 84.6466 249.879C84.695 250.728 84.9046 251.649 85.2756 252.49C85.4934 253.166 85.8321 253.833 86.2836 254.465C86.3885 254.673 86.4771 254.89 86.6062 255.107L86.84 255.481H86.9289C87.2434 255.957 87.6142 256.4 88.0094 256.799L87.7433 256.633C89.2998 258.168 90.9286 259.338 92.6463 260.231C94.364 261.134 96.1785 261.741 98.0979 262.025L98.0897 262.043ZM96.8722 239.633C98.5092 239.079 100.308 238.853 102.074 238.966C102.259 239.035 102.444 239.086 102.646 239.12C104.501 239.356 106.412 239.441 108.34 239.831C109.299 240.023 110.267 240.291 111.17 240.681C112.081 241.071 112.944 241.583 113.67 242.234C114.581 243.058 115.356 244.037 115.904 245.085C116.452 246.135 116.751 247.218 116.839 248.302C116.71 248.988 116.533 249.664 116.259 250.322C115.992 250.989 115.614 251.656 115.105 252.326C114.098 253.625 112.936 254.856 111.541 255.871C110.146 256.875 108.509 257.648 106.614 257.812C104.259 258.004 102.106 257.422 100.195 256.582C98.4768 255.818 96.9448 254.83 95.4367 253.773C95.4367 253.773 95.4527 253.764 95.4608 253.754C96.4528 253.141 97.356 252.333 98.1139 251.389C98.2349 251.329 98.3559 251.25 98.4366 251.137C99.251 250.105 99.4929 248.614 99.3236 247.28C99.2349 246.604 99.0816 245.962 98.872 245.364C98.6785 244.757 98.4284 244.21 98.2188 243.647C97.9367 242.952 97.5738 242.269 97.106 241.662C96.6705 241.089 96.1222 240.605 95.5253 240.265C95.9607 240.032 96.4044 239.815 96.864 239.624L96.8722 239.633Z" fill="#DA291C"/>
<path d="M205.254 247.141C205.287 247.266 205.32 247.377 205.353 247.485C205.155 247.728 204.998 247.996 204.833 248.263C204.676 248.547 204.536 248.859 204.42 249.184C204.197 249.828 204.082 250.548 204.156 251.294C204.214 251.947 204.445 252.6 204.783 253.136C204.833 253.958 205.047 254.844 205.427 255.657C205.65 256.31 205.997 256.954 206.459 257.565C206.566 257.766 206.657 257.976 206.789 258.184L207.028 258.544H207.119C207.441 259.006 207.813 259.433 208.225 259.816L207.953 259.659C209.546 261.148 211.214 262.27 212.972 263.133C214.73 264.003 216.587 264.589 218.552 264.866C219.294 264.966 220.029 265.032 220.764 265.093C220.541 265.376 220.326 265.67 220.112 265.995C219.74 266.514 219.369 267.075 219.014 267.662C218.931 267.812 218.841 267.971 218.75 268.105C218.659 268.257 218.56 268.414 218.469 268.557C218.279 268.866 218.106 269.169 217.932 269.487C217.429 270.291 216.868 271.135 216.364 272.098C216.174 272.375 215.968 272.592 215.762 272.878L215.398 273.372L215.423 273.49C215.192 273.815 214.961 274.15 214.738 274.501C214.507 274.829 214.276 275.173 214.045 275.523L214.21 275.106C212.542 277.792 210.726 280.228 208.787 282.538C206.83 284.858 204.775 287.076 202.546 289.345C199.938 292.025 197.041 294.402 193.92 296.394C190.8 298.37 187.482 299.97 184.04 301.091C181.349 301.987 178.46 302.758 175.513 303.37C172.575 303.988 169.595 304.466 166.665 304.833C163.743 305.212 160.886 305.505 158.163 305.789C155.439 306.073 152.855 306.357 150.461 306.844C148.051 306.433 145.715 305.897 143.461 305.193C141.208 304.482 139.004 303.695 136.875 302.749L136.066 302.405L135.273 302.038C134.753 301.786 134.217 301.544 133.68 301.302C132.64 300.766 131.583 300.263 130.543 299.693C128.455 298.589 126.408 297.366 124.328 296.076C115.76 290.728 108.207 283.694 102.47 275.364C100.283 272.183 98.4669 269.905 96.8904 268.506C95.3386 267.101 93.9849 266.616 93.0521 267.05C92.5899 267.26 92.2349 267.712 92.0285 268.398C91.9213 268.742 91.8552 269.134 91.8303 269.587C91.8057 270.039 91.8138 270.558 91.9048 271.11C92.0616 272.225 92.3917 273.557 93.0356 275.046C93.1842 275.415 93.3575 275.8 93.5392 276.202C93.729 276.587 93.9519 276.989 94.1747 277.391C94.4057 277.792 94.6451 278.219 94.9094 278.637C95.1818 279.057 95.4707 279.484 95.7761 279.909C96.4447 280.897 97.1958 281.836 97.9056 282.764C100.308 285.83 102.933 288.676 105.747 291.305C108.777 294.259 111.996 297.006 115.355 299.543C115.669 299.852 116.007 300.171 116.395 300.464C119.978 303.125 124.122 305.186 128.406 306.802C132.714 308.418 137.155 309.581 141.563 310.661C144.337 311.322 147.217 311.892 150.148 312.268C153.078 312.644 156.058 312.771 158.971 312.679C162.653 312.963 166.747 312.679 171.097 311.841C175.406 311.021 179.063 309.565 182.505 307.931C185.955 306.29 189.199 304.457 192.782 302.541C197.23 300.145 201.209 297.86 205.031 295.247C208.844 292.653 212.452 289.68 215.828 285.813C217.957 283.351 219.864 280.539 221.218 277.843C221.614 277.331 221.994 276.811 222.349 276.294C222.687 275.756 223.017 275.214 223.314 274.66C223.471 274.385 223.611 274.108 223.76 273.831C223.892 273.557 224.024 273.271 224.14 272.996C224.387 272.426 224.602 271.881 224.817 271.32C225.006 270.759 225.172 270.198 225.32 269.663C225.461 269.118 225.601 268.592 225.675 268.072C225.832 267.043 225.931 266.097 225.923 265.217C227.978 265.159 230.033 264.975 232.138 264.615C233.947 264.296 235.894 263.719 237.767 262.655C238.699 262.12 239.616 261.466 240.458 260.67C241.293 259.876 242.061 258.939 242.663 257.865C243.266 256.804 243.703 255.615 243.908 254.408C244.124 253.203 244.115 251.989 243.908 250.867C243.703 249.745 243.298 248.732 242.77 247.887C242.242 247.042 241.598 246.364 240.905 245.86C240.526 245.124 240.088 244.439 239.616 243.792C239.386 243.467 239.13 243.164 238.89 242.855C238.634 242.562 238.378 242.26 238.116 241.985C237.057 240.845 235.878 239.866 234.624 239.005C233.368 238.151 232.023 237.431 230.603 236.851C229.183 236.284 227.689 235.864 226.121 235.614C222.902 235.12 219.567 235.22 216.323 236.048C215.514 236.249 214.705 236.517 213.913 236.81C213.12 237.119 212.336 237.479 211.577 237.881C210.817 238.301 210.074 238.77 209.356 239.296C208.638 239.834 207.961 240.436 207.326 241.106C206.352 242.135 205.708 243.282 205.386 244.346C205.064 245.408 205.056 246.38 205.229 247.132L205.254 247.141ZM217.305 243.231C218.981 242.696 220.822 242.479 222.629 242.587C222.819 242.654 223.009 242.705 223.215 242.737C225.114 242.964 227.07 243.047 229.043 243.425C230.025 243.608 231.016 243.868 231.94 244.245C232.872 244.621 233.756 245.115 234.498 245.743C235.431 246.539 236.224 247.485 236.785 248.499C237.339 249.512 237.653 250.558 237.734 251.603C237.604 252.266 237.429 252.919 237.141 253.554C236.869 254.2 236.48 254.844 235.959 255.488C234.929 256.744 233.74 257.932 232.312 258.913C230.883 259.883 229.208 260.628 227.268 260.788C224.858 260.972 222.654 260.411 220.698 259.599C218.939 258.863 217.371 257.907 215.828 256.887C215.828 256.887 215.844 256.878 215.853 256.871C216.868 256.275 217.792 255.497 218.568 254.585C218.692 254.519 218.816 254.452 218.898 254.341C219.732 253.346 219.979 251.906 219.806 250.615C219.715 249.962 219.559 249.344 219.344 248.766C219.146 248.18 218.89 247.652 218.675 247.109C218.386 246.437 218.015 245.777 217.536 245.191C217.091 244.639 216.529 244.169 215.918 243.843C216.364 243.617 216.818 243.407 217.297 243.224L217.305 243.231Z" fill="#DA291C"/>
<path d="M135.659 280.795C135.759 280.985 135.859 281.169 135.967 281.352C136.083 281.525 136.2 281.7 136.308 281.866C136.532 282.208 136.79 282.517 137.031 282.836C137.281 283.138 137.522 283.431 137.771 283.734C138.27 284.313 138.728 284.899 139.169 285.527C139.709 286.321 140.191 287.108 140.707 287.877C141.214 288.655 141.721 289.442 142.329 290.197C142.628 290.585 142.927 290.926 143.243 291.284C143.559 291.626 143.892 291.974 144.25 292.283C144.956 292.918 145.738 293.474 146.603 293.904C147.709 294.444 148.915 294.746 150.029 294.682C150.777 295.286 151.65 295.459 152.49 295.3C153.339 295.143 154.154 294.642 154.869 293.92L155.268 293.507C156.257 292.498 156.532 290.601 156.299 289.299L156.199 288.719C155.983 287.512 155.226 286.67 154.353 286.321C154.095 286.116 153.796 285.973 153.463 285.908C153.38 285.83 153.305 285.742 153.206 285.677L153.039 285.566L152.981 285.654C152.765 285.527 152.524 285.433 152.291 285.368L152.449 285.306C151.501 285.13 150.661 284.86 149.854 284.599C149.048 284.336 148.274 284.082 147.401 283.907C147.135 283.851 146.919 283.789 146.678 283.718C146.453 283.637 146.22 283.542 146.012 283.431C145.804 283.311 145.588 283.194 145.414 283.051C145.322 282.979 145.222 282.907 145.139 282.827C145.056 282.748 144.973 282.67 144.89 282.582C144.25 281.915 143.9 281.026 144 280.168C144.075 279.484 144.291 278.882 144.532 278.436C144.649 278.215 144.782 278.032 144.881 277.866C144.931 277.785 144.998 277.714 145.031 277.642C145.056 277.571 145.114 277.499 145.139 277.428C145.256 277.144 145.222 276.809 145.139 276.246C145.123 276.174 145.098 276.103 145.081 276.024C145.073 275.943 145.056 275.865 145.04 275.784C145.006 275.618 144.94 275.429 144.898 275.23C144.815 274.833 144.665 274.349 144.524 273.808C144.657 273.728 144.782 273.642 144.915 273.571C145.056 273.506 145.197 273.434 145.339 273.372L145.547 273.275L145.771 273.204C145.921 273.157 146.071 273.109 146.212 273.07C146.362 273.031 146.52 273.005 146.669 272.975C146.827 272.95 146.96 272.91 147.119 272.894L147.576 272.848C147.651 272.848 147.725 272.832 147.8 272.823H148.033L148.482 272.8C148.632 272.8 148.782 272.8 148.923 272.8C149.214 272.8 149.497 272.823 149.771 272.832C149.913 272.832 150.046 272.848 150.179 272.855C150.312 272.862 150.445 272.871 150.578 272.871C150.727 272.878 150.877 272.887 151.035 272.887C151.185 272.887 151.335 272.887 151.493 272.887C154.012 272.848 156.906 273.268 160.133 273.871C162.602 274.355 164.789 272.084 165.621 269.52C166.444 266.965 166.012 264.137 163.168 263.724C162.76 263.668 162.353 263.622 161.954 263.565C160.623 263.398 159.234 263.281 157.821 263.225C156.291 263.027 154.702 262.819 153.048 262.669C152.881 262.572 152.698 262.493 152.507 262.477C152.058 262.431 151.609 262.415 151.152 262.454C150.694 262.494 150.237 262.558 149.779 262.676C149.555 262.731 149.322 262.796 149.098 262.858C148.865 262.93 148.624 263.017 148.382 263.105C148.149 263.193 147.908 263.281 147.676 263.382C147.451 263.486 147.226 263.597 147.002 263.708C146.553 263.915 146.129 264.176 145.713 264.423C145.289 264.661 144.898 264.94 144.499 265.194L144.2 265.383L143.909 265.591C143.717 265.725 143.518 265.852 143.326 265.979C142.936 266.233 142.561 266.503 142.171 266.741C141.921 266.893 141.688 267.066 141.439 267.225C141.198 267.392 140.948 267.551 140.715 267.742C140.482 267.925 140.241 268.107 140 268.289C139.767 268.488 139.543 268.696 139.318 268.901C138.428 269.744 137.605 270.711 137.048 271.846C135.859 272.982 135.011 274.752 134.803 276.786C134.678 277.785 134.853 278.746 135.127 279.595C135.285 280.017 135.443 280.431 135.651 280.802L135.659 280.795Z" fill="#DA291C"/>
<path d="M327.839 244.289C327.673 242.516 327.378 240.743 326.957 239.035C326.127 235.603 324.826 232.38 323.286 229.518C321.325 225.891 319.094 222.418 316.387 219.205C315.719 218.4 314.993 217.627 314.27 216.863C313.521 216.106 312.762 215.358 311.948 214.651C310.343 213.219 308.573 211.918 306.679 210.755C305.023 209.746 303.229 208.973 301.424 208.437C299.614 207.9 297.77 207.575 295.918 207.445C292.212 207.184 288.49 207.615 284.726 208.754L285.28 208.697C285.04 208.77 284.794 208.843 284.554 208.933C284.317 209.022 284.077 209.112 283.847 209.209C283.377 209.388 282.924 209.616 282.479 209.836L282.33 209.787C282.109 209.901 281.886 210.039 281.672 210.169C281.295 210.389 280.991 210.617 280.651 210.86C279.451 211.454 278.404 212.227 277.548 213.04C277.506 213.073 277.466 213.113 277.424 213.146C277.259 212.3 277.087 211.503 276.906 210.763C276.108 207.542 275.11 205.452 274.065 204.484C274.098 204.297 274.13 204.11 274.147 203.931C274.205 203.142 274.049 202.556 273.819 202.215C273.595 201.857 273.339 201.719 273.086 201.735C272.83 201.743 272.551 201.889 272.295 202.117C272.146 202.231 272 202.353 271.841 202.491C271.653 202.621 271.504 202.768 271.299 202.93C270.911 203.239 270.408 203.589 269.734 204.004C269.066 204.411 268.219 204.874 267.166 205.354C265.065 206.33 262.16 207.412 258.528 208.51C254.906 209.616 250.549 210.755 245.485 211.934C242.638 212.601 239.772 213.178 236.899 213.715C234.742 214.114 232.568 214.488 230.394 214.821C229.809 214.919 229.217 215.008 228.624 215.098C227.817 215.22 227.002 215.342 226.187 215.456C224.993 215.626 223.791 215.789 222.597 215.944C221.633 216.074 220.67 216.196 219.707 216.302C218.966 216.399 218.233 216.481 217.492 216.562C216.405 216.692 215.318 216.814 214.232 216.92C213.145 217.042 212.058 217.148 210.971 217.245C213.573 216.001 216.125 214.634 218.604 213.154C223.799 210.112 228.673 206.607 233.103 202.825C235.317 200.93 237.425 198.961 239.393 196.936C240.391 195.911 241.337 194.887 242.268 193.821C242.735 193.292 243.189 192.764 243.633 192.219C243.857 191.942 244.087 191.666 244.301 191.381L244.645 190.942L244.664 190.917C244.664 190.917 244.671 190.901 244.671 190.885L244.629 190.942L244.589 190.958L244.629 190.901L244.736 190.796L244.95 190.552C245.008 190.487 245.066 190.421 245.132 190.356C246.541 190.714 247.939 191.064 249.314 191.422C249.777 191.536 250.221 191.658 250.673 191.78C252.485 192.259 254.246 192.739 255.935 193.227C258.652 194.008 261.203 194.813 263.46 195.651C265.716 196.489 267.701 197.367 269.231 198.295C269.792 198.644 270.353 199.01 270.797 199.425C271.637 200.182 272.055 200.759 272.402 201.157C272.5 201.263 272.574 201.361 272.649 201.426C272.723 201.507 272.797 201.572 272.879 201.613C273.035 201.719 273.184 201.751 273.323 201.71C273.605 201.637 273.942 201.239 274.065 200.482C274.179 199.726 274.033 198.612 273.465 197.489L273.481 197.457C273.307 197.131 273.151 196.798 272.946 196.489C272.856 196.326 272.756 196.172 272.658 196.017C272.551 195.871 272.444 195.724 272.337 195.578C271.66 194.643 270.69 193.642 269.471 192.674C268.261 191.698 266.803 190.755 265.198 189.885C261.987 188.12 258.142 186.591 254.181 185.379C253.869 185.273 253.539 185.167 253.217 185.062C252.887 184.956 252.559 184.85 252.229 184.744C252.222 184.744 252.213 184.744 252.206 184.744C251.547 184.541 250.87 184.346 250.189 184.151C250.393 183.874 250.598 183.598 250.796 183.321C251.029 182.996 251.259 182.678 251.48 182.361C251.71 182.036 251.908 181.703 252.106 181.377C252.517 180.718 252.929 180.06 253.318 179.417C253.694 178.775 254.074 178.124 254.436 177.489C254.774 176.847 255.104 176.188 255.409 175.554C255.886 174.944 256.346 174.334 256.816 173.732C257.047 173.431 257.293 173.138 257.523 172.837C257.737 172.528 257.961 172.211 258.182 171.902C259.063 170.666 259.945 169.437 260.808 168.201C261.625 166.932 262.432 165.672 263.246 164.411C263.658 163.785 264.028 163.126 264.4 162.492C264.777 161.841 265.149 161.198 265.528 160.548C268.459 155.359 271.011 149.991 273.109 144.427C275.161 138.848 276.789 133.09 277.927 127.136C278.059 126.396 278.19 125.639 278.322 124.891L278.52 123.777C278.594 123.403 278.618 123.021 278.676 122.63C278.857 121.117 279.046 119.596 279.227 118.051C279.327 116.514 279.434 114.969 279.541 113.415L279.581 112.829V112.244C279.59 111.854 279.606 111.455 279.606 111.065C279.606 110.276 279.623 109.503 279.632 108.706C279.597 101.183 278.774 93.6593 277.185 86.2905C277.771 86.2741 278.371 86.2254 278.997 86.1522L280.132 85.9814L280.702 85.8919L281.26 85.7862L282.389 85.5586L283.501 85.282L284.061 85.1438L284.603 84.981L285.699 84.6556L286.778 84.2817L287.313 84.0945L287.839 83.883L288.893 83.4602L289.93 82.9964L290.449 82.7605L290.951 82.5085L291.966 82.0041C293.289 81.2803 294.599 80.5322 295.834 79.6701C300.817 76.2864 305.039 71.7725 307.98 66.4532C308.152 66.128 308.317 65.8027 308.482 65.4773L308.729 64.9893L308.952 64.4933C309.098 64.1598 309.247 63.8262 309.396 63.501C309.536 63.1675 309.659 62.8258 309.792 62.4923C310.31 61.1503 310.68 59.8083 311.018 58.4582C311.643 55.7581 311.932 53.0496 311.955 50.3737C311.981 45.0221 311.001 39.8574 309.38 34.7577C309.701 32.0411 309.296 29.0238 308.291 25.9737C307.773 24.4609 307.107 22.9319 306.291 21.4354C305.467 19.947 304.513 18.4911 303.434 17.0922C302.348 15.7014 301.145 14.3756 299.852 13.1394C298.551 11.9031 297.16 10.7563 295.711 9.73153C292.812 7.6738 289.693 6.07153 286.639 4.90034C282.751 3.42008 278.767 2.22447 274.6 1.54941C273.563 1.37048 272.5 1.24847 271.446 1.14274C270.385 1.05327 269.315 0.980075 268.226 0.971942C266.063 0.931275 263.865 1.07767 261.664 1.42741C259.738 1.72834 257.877 2.30581 256.158 3.07034C254.427 3.83486 252.822 4.77833 251.333 5.8682C248.351 8.06419 245.815 10.797 243.724 14.0828L244.103 13.6843C243.971 13.8958 243.831 14.1072 243.708 14.3269C243.585 14.5465 243.468 14.7661 243.354 14.9938C243.115 15.433 242.926 15.8966 242.735 16.3521L242.596 16.4171C242.505 16.653 242.431 16.897 242.349 17.1329C242.21 17.5476 242.126 17.9137 242.035 18.3122C241.517 19.5403 241.237 20.7928 241.123 21.9641C240.819 23.6558 240.851 25.3801 241.172 26.8603C239.155 25.258 237.327 23.9648 235.722 22.9807C232.872 21.2239 230.699 20.4269 229.266 20.4512C229.151 20.2804 229.036 20.1178 228.92 19.9795C228.402 19.3695 227.875 19.0605 227.471 18.971C227.059 18.8734 226.78 18.9547 226.607 19.1336C226.434 19.3126 226.335 19.6135 226.31 19.9551C226.285 20.1422 226.261 20.3292 226.253 20.5326C226.211 20.7522 226.211 20.9636 226.178 21.2158C226.121 21.7119 226.006 22.2975 225.816 23.0621C225.635 23.8184 225.347 24.7294 224.935 25.8029C224.128 27.9503 222.811 30.7236 220.991 34.0176C219.172 37.3117 216.858 41.1343 214.067 45.4611C212.502 47.9011 210.856 50.2924 209.176 52.6593C203.635 60.4428 197.583 67.9337 191.276 75.221C184.261 83.1592 176.843 90.8208 169.186 98.149C168.346 98.8728 167.481 99.6373 166.608 100.451C158.416 108.104 150.075 116.01 141.389 123.712C132.711 131.398 123.67 138.881 114.119 145.501C108.125 149.641 101.802 153.659 95.2232 157.164C91.9378 158.905 88.5787 160.523 85.1864 161.817C83.4903 162.451 81.7859 163.028 80.1226 163.419C79.2828 163.63 78.4512 163.768 77.6608 163.874C76.8622 163.972 76.0882 164.012 75.3966 163.948C75.2815 163.948 75.1826 163.915 75.0756 163.899C75.0507 163.899 75.0344 163.899 75.0095 163.891C74.779 163.744 74.5485 163.598 74.3179 163.459L72.9101 162.622C72.9101 162.622 72.8771 162.573 72.8689 162.549C72.8443 162.483 72.8031 162.435 72.7866 162.362C72.7619 162.288 72.7454 162.215 72.7124 162.134C72.6877 162.069 72.6712 161.963 72.6549 161.89C72.6054 161.735 72.5972 161.516 72.5642 161.337L72.5395 161.02V160.865V160.694V160.361C72.5479 160.247 72.5642 160.125 72.5642 160.003C72.5726 159.767 72.6054 159.515 72.6384 159.263C72.7701 158.254 73.0418 157.156 73.3877 156.05C73.7334 154.944 74.1616 153.813 74.6392 152.667C75.1168 151.52 75.6518 150.373 76.2364 149.218C77.3891 146.908 78.7148 144.574 80.1475 142.207C82.9881 137.555 85.8945 133.252 88.8093 129.121C91.7238 124.989 94.6467 121.06 97.6273 117.213C103.613 109.535 109.846 102.175 117.24 94.6271C126.429 85.282 135.312 77.4415 144.345 69.9587C153.402 62.4842 162.623 55.335 172.882 47.7142C179.395 42.8911 186.221 38.0111 192.355 33.8062C197.863 30.6585 203.305 27.4946 208.32 24.8676C210.823 23.55 213.219 22.3707 215.425 21.411C217.632 20.4513 219.674 19.7192 221.419 19.3289C222.07 19.1906 222.729 19.0686 223.338 19.0605C224.474 19.0279 225.182 19.1418 225.717 19.1906C225.857 19.1987 225.981 19.215 226.08 19.215C226.195 19.215 226.285 19.215 226.376 19.1906C226.557 19.158 226.689 19.0767 226.763 18.9547C226.911 18.7107 226.87 18.1902 226.425 17.5639C225.973 16.9458 225.075 16.2463 223.881 15.8397V15.8071C223.519 15.6932 223.173 15.5631 222.803 15.4818C222.44 15.3761 222.086 15.3191 221.724 15.2541C220.58 15.0507 219.18 15.0019 217.624 15.1564C216.068 15.2866 214.363 15.6282 212.593 16.1081C209.044 17.0596 205.207 18.6212 201.511 20.4756C199.057 21.6224 196.48 22.997 193.829 24.575C193.005 25.014 192.24 25.4288 191.367 25.917L189.852 26.7871L189.663 26.9905C187.711 28.1536 185.735 29.398 183.8 30.6993L184.796 29.9429C177.345 34.9529 170.462 40.0363 163.751 45.3228C157.057 50.6096 150.553 56.1239 144.015 62.1507C136.35 69.2268 128.874 76.3922 121.563 83.6227C114.243 90.8534 107.088 98.1407 100.122 105.526C94.6386 111.341 88.9986 117.669 83.6385 124.452C80.9626 127.844 78.3526 131.357 75.907 135.001C73.4535 138.653 71.1563 142.427 69.1721 146.445C68.1841 148.453 67.2948 150.536 66.5455 152.74C66.1833 153.846 65.8539 154.984 65.6069 156.18C65.3517 157.376 65.1705 158.644 65.1458 160.011C65.1377 161.377 65.2447 162.874 65.8209 164.492C65.9691 164.899 66.1256 165.298 66.348 165.696C66.455 165.899 66.5455 166.095 66.6772 166.29C66.8091 166.477 66.9326 166.672 67.0724 166.867C67.2043 167.054 67.3525 167.233 67.5172 167.42C67.6654 167.599 67.8217 167.778 67.9945 167.941C68.3404 168.258 68.678 168.592 69.0651 168.844C69.2544 168.974 69.4438 169.112 69.6331 169.242C69.8306 169.356 70.02 169.462 70.2259 169.568C70.5306 169.746 70.8353 169.869 71.1398 169.99C73.1488 173.236 76.4506 177.351 80.098 181.312L80.2215 181.458C77.735 182.044 75.265 182.719 72.8112 183.508C72.4244 183.638 72.0292 183.76 71.6421 183.89C71.2387 184.02 70.827 184.159 70.4236 184.305C69.8883 184.492 69.3614 184.687 68.8345 184.899C67.2455 185.517 65.6562 186.217 64.0918 187.005C63.0545 187.55 62.017 188.136 60.9879 188.819C59.9585 189.502 58.9378 190.283 57.9496 191.251C56.9781 192.219 55.9983 193.366 55.2656 194.919C55.0844 195.318 54.9197 195.708 54.7961 196.156C54.7222 196.367 54.6561 196.57 54.6068 196.798C54.5656 197.026 54.5244 197.245 54.4832 197.481C54.4421 197.709 54.4256 197.937 54.4093 198.189C54.3928 198.416 54.3762 198.652 54.3844 198.888C54.4093 199.352 54.4174 199.824 54.5079 200.271C54.5575 200.491 54.5986 200.726 54.6398 200.946C54.7056 201.165 54.755 201.369 54.8373 201.588C54.9278 201.922 55.0597 202.223 55.1914 202.524C54.3432 206.232 53.7917 211.454 53.6023 216.798C53.6023 216.871 53.5942 216.944 53.5858 217.009C53.2317 216.651 52.8614 216.31 52.4662 215.993C51.6099 215.179 50.564 214.415 49.362 213.821C49.0326 213.577 48.7198 213.349 48.341 213.13C48.1187 212.999 47.9046 212.861 47.6823 212.747L47.5341 212.796C47.0895 212.577 46.645 212.349 46.1674 212.17C45.9369 212.072 45.698 211.983 45.4593 211.893C45.2204 211.812 44.9817 211.739 44.7347 211.658L45.2865 211.715C41.5235 210.584 37.802 210.145 34.097 210.413C32.2444 210.543 30.4001 210.869 28.5887 211.405C26.7854 211.934 24.9905 212.707 23.3356 213.715C21.4419 214.878 19.6717 216.18 18.0661 217.611C17.251 218.31 16.4935 219.067 15.7442 219.823C15.0197 220.596 14.2951 221.361 13.6282 222.174C10.9193 225.378 8.69627 228.851 6.73669 232.487C5.197 235.349 3.90433 238.571 3.06448 242.003C2.64457 243.712 2.34816 245.484 2.1835 247.257C2.02706 249.03 1.98589 250.812 2.0847 252.559C2.19173 254.309 2.43051 256.033 2.79278 257.683C3.1633 259.343 3.67377 260.922 4.28306 262.41C5.53458 265.37 7.23892 267.915 9.27262 269.762C11.4134 274.674 14.0893 279.212 17.6462 283.247C19.4329 285.248 21.4419 287.111 23.7062 288.761C24.8507 289.567 26.0198 290.34 27.3041 291.023C27.6254 291.194 27.9464 291.372 28.2674 291.536C28.5968 291.69 28.9262 291.845 29.2638 292.006L29.766 292.235L30.2766 292.445C30.6223 292.583 30.9598 292.722 31.3057 292.86C37.0446 294.984 43.228 295.683 49.2385 295.032C50.7452 294.885 52.2356 294.61 53.7177 294.301L54.8208 294.031L55.3726 293.895L55.916 293.74L57.0028 293.421L58.0815 293.057L58.6165 292.877L59.1518 292.673L60.2139 292.258L61.2596 291.803L61.7783 291.568L62.2887 291.316L63.3097 290.804L64.306 290.25L64.7999 289.973L65.2859 289.673L66.2573 289.07C66.6113 288.842 66.9326 288.599 67.2536 288.355C67.7889 289.273 68.3323 290.185 68.9004 291.078L69.8225 292.583L70.8188 294.04L71.8149 295.496L72.309 296.219L72.5642 296.586L72.8278 296.934C73.5275 297.878 74.244 298.813 74.9437 299.75C75.2896 300.228 75.6683 300.676 76.047 301.124L77.1669 302.483L78.2865 303.841L79.4722 305.142L80.6579 306.444L81.2425 307.093L81.8601 307.712C82.6915 308.542 83.515 309.371 84.3466 310.2C85.2029 310.998 86.0757 311.788 86.932 312.575C90.4311 315.675 94.1198 318.546 97.9733 321.18C107.187 327.461 118.516 332.469 130.274 335.186C136.144 336.594 142.113 337.439 147.959 337.797C150.882 337.968 153.78 338.009 156.621 337.919C158.054 337.871 159.462 337.79 160.878 337.674C161.586 337.619 162.278 337.545 162.986 337.464C163.34 337.423 163.702 337.381 164.056 337.326L164.616 337.245H164.649C164.649 337.245 164.665 337.236 164.674 337.22L164.599 337.236L164.558 337.22L164.632 337.204H164.789L165.118 337.171C165.332 337.155 165.546 337.139 165.769 337.123C166.205 337.091 166.625 337.049 167.053 337.017C167.901 336.943 168.741 336.862 169.572 336.781C169.993 336.749 170.396 336.675 170.808 336.61C171.219 336.537 171.623 336.479 172.026 336.423C172.833 336.285 173.632 336.146 174.422 336.015C174.809 335.943 175.196 335.869 175.591 335.796C175.978 335.724 176.365 335.618 176.736 335.528C177.493 335.341 178.251 335.154 178.983 334.958C179.716 334.764 180.441 334.561 181.149 334.358C181.849 334.129 182.549 333.884 183.216 333.633C183.99 333.527 184.747 333.414 185.505 333.307C185.883 333.25 186.262 333.201 186.641 333.146C187.019 333.072 187.398 333.007 187.769 332.933C189.275 332.656 190.774 332.379 192.264 332.089C193.746 331.747 195.22 331.396 196.686 331.055C197.427 330.893 198.151 330.671 198.868 330.484C199.6 330.281 200.317 330.071 201.041 329.868C206.821 328.176 212.437 326.094 217.863 323.555C223.272 320.977 228.509 317.976 233.531 314.495C234.156 314.057 234.775 313.6 235.401 313.161L236.338 312.494C236.652 312.284 236.948 312.023 237.253 311.788C238.462 310.828 239.674 309.877 240.884 308.891C242.045 307.859 243.215 306.825 244.392 305.784L244.827 305.394L245.248 304.979C245.527 304.702 245.815 304.427 246.088 304.15C246.648 303.589 247.207 303.044 247.767 302.483C253.078 297.066 257.812 291.088 261.887 284.703C262.464 285.19 263.081 285.68 263.774 286.134L264.744 286.737L265.23 287.037L265.723 287.321L266.721 287.875L267.743 288.387L268.252 288.639L268.771 288.874L269.818 289.331L270.878 289.747L271.413 289.95L271.948 290.137L273.028 290.501L274.114 290.82L274.658 290.975L275.21 291.111L276.312 291.381C277.794 291.69 279.285 291.965 280.793 292.113C286.801 292.77 292.987 292.071 298.726 289.941C299.07 289.802 299.407 289.664 299.754 289.525L300.263 289.315L300.766 289.086C301.096 288.932 301.434 288.777 301.764 288.616C302.092 288.452 302.406 288.274 302.727 288.103C304.011 287.42 305.179 286.647 306.323 285.841C308.58 284.198 310.597 282.328 312.383 280.327C315.94 276.292 318.617 271.754 320.758 266.842C322.791 264.989 324.496 262.45 325.747 259.491C326.357 258.002 326.866 256.423 327.238 254.763C327.599 253.106 327.839 251.389 327.946 249.639C328.043 247.882 328.004 246.103 327.848 244.337L327.839 244.289ZM225.75 223.435C232.937 222.516 240.118 221.344 247.248 219.734C252.715 218.514 257.416 217.025 261.343 215.35C264.044 214.203 266.375 212.934 268.294 211.6C267.791 213.813 267.387 216.481 267.107 219.636C266.952 221.377 266.828 223.248 266.761 225.273C266.745 225.525 266.745 225.777 266.738 226.037C266.738 226.167 266.721 226.289 266.721 226.428C266.721 226.55 266.705 226.672 266.705 226.794C266.689 227.282 266.663 227.786 266.631 228.29C266.589 229.307 266.556 230.348 266.54 231.438C266.475 232.651 266.375 233.862 266.3 235.081C266.261 235.69 266.235 236.293 266.17 236.895C266.103 237.498 266.028 238.098 265.963 238.7L265.609 241.678L265.107 244.621C264.818 246.599 264.332 248.533 263.914 250.486C263.723 251.469 263.427 252.43 263.172 253.39L262.381 256.277L261.434 259.124L260.957 260.548L260.843 260.905L260.701 261.254L260.431 261.953C260.01 262.971 259.598 263.996 259.18 265.012C258.982 265.533 258.726 266.02 258.503 266.517L257.805 268.022L257.105 269.527L256.93 269.891L256.732 270.258L256.337 270.99L254.764 273.901C254.641 274.138 254.495 274.381 254.353 274.619L253.925 275.325L253.062 276.74L252.196 278.155C251.908 278.628 251.58 279.076 251.275 279.53C250.656 280.44 250.024 281.352 249.398 282.263C248.739 283.141 248.063 284.011 247.388 284.897C247.076 285.232 246.746 285.58 246.441 285.957C246.136 286.321 245.783 286.672 245.453 287.053C244.696 287.932 243.938 288.826 243.189 289.721C242.398 290.591 241.617 291.452 240.835 292.332L240.249 292.99C240.044 293.211 239.856 293.437 239.658 293.641C239.253 294.065 238.834 294.495 238.423 294.919C238.011 295.342 237.606 295.78 237.187 296.203L236.578 296.847C236.371 297.05 236.157 297.26 235.943 297.472C235.087 298.301 234.231 299.139 233.384 299.977L233.061 300.286L232.733 300.588L232.065 301.188C231.621 301.595 231.168 301.994 230.723 302.4L229.381 303.612L227.99 304.775L226.59 305.939C226.129 306.322 225.668 306.719 225.174 307.077C224.202 307.811 223.231 308.542 222.268 309.29C221.79 309.664 221.279 310.006 220.777 310.348L219.262 311.379L217.739 312.42L216.166 313.39L214.594 314.357C214.067 314.673 213.548 315.008 213.005 315.292L209.752 317.041C209.209 317.341 208.649 317.593 208.089 317.854L206.41 318.634L204.73 319.407C204.162 319.643 203.586 319.864 203.009 320.1L201.28 320.767L200.416 321.092C200.127 321.205 199.839 321.318 199.551 321.408C198.176 321.856 196.793 322.295 195.401 322.743C195.055 322.865 194.693 322.946 194.347 323.036C193.985 323.126 193.639 323.223 193.277 323.32C192.569 323.516 191.853 323.703 191.136 323.881C190.774 323.971 190.428 324.068 190.066 324.167L188.971 324.393C188.246 324.548 187.514 324.702 186.789 324.857L185.702 325.092L185.151 325.192L184.599 325.296C183.866 325.418 183.133 325.533 182.384 325.653C181.651 325.776 180.902 325.891 180.169 326.011C179.436 326.11 178.679 326.182 177.938 326.265C176.456 326.42 174.974 326.646 173.475 326.704C172.726 326.761 171.985 326.801 171.236 326.849L170.116 326.923C169.935 326.932 169.745 326.955 169.564 326.955H169.004C167.465 326.997 165.917 327.029 164.393 327.068C164.039 327.068 163.57 327.11 163.455 327.135C163.249 327.151 163.051 327.174 162.846 327.191C162.426 327.223 162.014 327.258 161.594 327.29C157.642 327.258 153.41 327.068 149.021 326.71C144.633 326.337 140.071 325.785 135.362 324.922C130.718 324.068 126.354 323.117 122.18 322.002C118.022 320.88 114.037 319.603 110.192 318.066L108.751 317.48L108.035 317.187C107.796 317.09 107.565 316.977 107.327 316.871C106.388 316.439 105.449 316.016 104.502 315.562C103.58 315.082 102.666 314.602 101.744 314.121L101.39 313.941L101.044 313.738L100.369 313.348C99.9164 313.08 99.4634 312.82 99.0189 312.552C95.4453 310.354 91.9955 307.792 88.7597 304.72C84.7665 300.879 81.4814 296.747 78.789 292.438C76.3518 288.509 74.4003 284.468 72.7619 280.336C72.8196 279.969 72.8524 279.62 72.8524 279.302C72.8524 278.806 72.7619 278.351 72.6465 277.952C72.3995 277.162 71.9468 276.594 71.3622 276.22C71.3127 276.188 71.2634 276.172 71.2222 276.147C71.1645 275.985 71.0987 275.814 71.041 275.65C70.6869 274.48 70.3329 273.317 69.9707 272.137L69.7071 271.258C69.625 270.958 69.5589 270.658 69.4766 270.365C69.3284 269.762 69.1802 269.169 69.0239 268.566C68.7275 267.371 68.3898 266.191 68.1676 264.954C67.9124 263.735 67.657 262.507 67.4018 261.279C67.1631 260.035 66.9901 258.782 66.7679 257.522C66.6525 256.896 66.5536 256.261 66.4304 255.617C66.348 254.966 66.2573 254.325 66.1749 253.683C65.994 252.388 65.8127 251.079 65.6234 249.754C64.8083 242.996 64.3472 235.944 63.8613 229.575C63.9848 228.217 64.0671 226.851 64.1248 225.492C64.1579 224.809 64.1741 224.15 64.1907 223.459C64.2072 222.768 64.2237 222.084 64.2237 221.393C64.2565 218.652 64.1741 215.976 64.0097 213.414C63.9355 212.333 63.845 211.275 63.7461 210.234C64.1495 210.438 64.5612 210.633 64.9565 210.812C66.8337 211.674 68.678 212.333 70.4813 212.902C74.0958 214.041 77.5786 214.781 80.8556 215.293C87.5494 217.212 94.161 218.66 100.723 219.921C107.302 221.174 113.839 222.207 120.401 223.077C122.007 223.288 123.613 223.492 125.226 223.678C126.577 223.841 127.927 223.996 129.277 224.142C130.167 224.24 131.064 224.337 131.962 224.427C132.645 224.5 133.337 224.565 134.028 224.63C134.991 224.728 135.963 224.817 136.935 224.899C137.297 224.931 137.659 224.964 138.021 224.996C139.265 225.11 140.516 225.208 141.768 225.305C143.217 225.419 144.666 225.517 146.123 225.614C148.816 225.793 151.533 225.94 154.275 226.062C154.489 226.078 154.711 226.086 154.933 226.094C155.188 226.127 155.444 226.151 155.699 226.176L157.461 226.371L159.223 226.574L160.985 226.688L162.755 226.794L163.636 226.859L164.517 226.875C165.695 226.899 166.872 226.924 168.049 226.948C169.227 226.924 170.404 226.891 171.582 226.867C173.549 226.786 175.525 226.647 177.485 226.46H177.501C178.613 226.452 179.733 226.444 180.844 226.428C181.734 226.411 182.623 226.403 183.512 226.379C183.825 226.379 184.138 226.379 184.451 226.362C185.142 226.346 185.826 226.33 186.517 226.314C187.522 226.289 188.526 226.257 189.531 226.224C190.634 226.184 191.737 226.143 192.841 226.102C194.092 226.053 195.344 225.997 196.595 225.932C199.098 225.809 201.601 225.671 204.104 225.5C211.317 225.029 218.53 224.354 225.717 223.443L225.75 223.435ZM247.693 30.7725C247.816 30.5692 247.916 30.3494 248.023 30.0974C248.137 29.8208 248.237 29.5605 248.36 29.3003C248.698 28.609 248.986 27.9094 249.307 27.1855C249.596 26.47 249.907 25.7378 250.196 24.9897C250.475 24.2414 250.763 23.4687 251.029 22.6635C251.291 21.8583 251.538 21.0043 251.785 20.1015C253.085 18.361 254.609 16.4903 256.281 14.8311C256.939 14.1805 257.607 13.5623 258.289 12.9849C258.982 12.4155 259.68 11.8787 260.406 11.3745C261.138 10.8865 261.88 10.431 262.653 10.0325C263.411 9.65019 264.274 9.2842 265.156 8.98325C266.044 8.68233 266.959 8.42206 267.905 8.235C268.852 8.05607 269.841 7.92593 270.846 7.86901C271.858 7.82019 272.895 7.84461 273.949 7.9422C275.003 8.04794 276.082 8.24312 277.168 8.5278C278.922 8.9914 280.528 9.68274 282.009 10.5367C283.494 11.3907 284.852 12.3749 286.127 13.4566C287.404 14.5383 288.614 15.7014 289.8 16.9458C290.984 18.1821 292.154 19.4834 293.389 20.8823C295.876 23.7046 297.828 26.5757 299.631 29.2352C300.684 31.537 301.599 33.9281 302.315 36.3681C302.659 37.5882 302.964 38.8162 303.194 40.0444C303.418 41.2726 303.606 42.5006 303.681 43.7126C303.83 45.6483 303.706 47.6004 303.369 49.4871C303.032 51.3824 302.471 53.204 301.796 54.9366C301.615 55.3675 301.459 55.7987 301.252 56.2135L300.973 56.8397C300.873 57.0511 300.775 57.2545 300.675 57.4578L300.38 58.0679L300.066 58.6535C299.959 58.8485 299.87 59.0438 299.754 59.2391L299.424 59.8083C298.551 61.3375 297.604 62.7933 296.641 64.2574C296.444 64.5745 296.262 64.8917 296.123 65.2252C294.122 67.8928 291.528 70.2191 288.623 71.9595C285.906 73.4399 282.998 74.5135 280.067 75.0746C279.846 75.1233 279.623 75.1559 279.399 75.1967L278.734 75.3025C278.29 75.3675 277.836 75.3999 277.392 75.4569C276.289 75.5545 275.291 75.6522 274.386 75.7659C273.802 73.9521 273.177 72.1547 272.493 70.3735C267.766 58.1655 260.808 46.8357 252.147 37.0594C251.291 36.1405 250.468 35.262 249.635 34.4324C249.233 34.0176 248.821 33.6029 248.435 33.2042C248.039 32.8139 247.66 32.4642 247.274 32.1062C247.109 31.9599 246.96 31.8135 246.795 31.6672C246.969 31.5695 247.132 31.4394 247.281 31.293C247.437 31.1384 247.569 30.9595 247.693 30.7642V30.7725ZM149.441 133.147C149.804 133.391 150.158 133.651 150.512 133.895C149.458 133.195 148.503 132.553 149.441 133.147ZM84.0253 169.153C85.9768 168.47 87.7634 167.673 89.4513 166.835C92.8437 165.151 95.8654 163.289 98.5741 161.393C104.717 158.148 110.48 154.627 116.07 150.999C121.661 147.364 127.071 143.59 132.39 139.686C136.902 136.367 141.356 132.935 145.769 129.381C146.387 130.715 147.778 132.252 150.125 133.724C150.685 134.074 151.236 134.424 151.788 134.773C153.105 135.7 154.414 136.652 155.699 137.62C155.88 137.823 156.078 138.018 156.308 138.206C160.565 141.556 165.958 143.777 170.569 146.965C173.467 148.958 176.448 151.17 179.469 153.13C180.317 153.895 181.239 154.643 182.228 155.399C183.216 156.156 184.261 156.92 185.414 157.709C187.686 159.263 190.041 160.377 192.495 161.19C194.965 161.987 197.509 162.508 200.383 162.671C202.186 162.752 203.915 162.589 205.561 162.231C207.217 161.873 208.789 161.312 210.288 160.54C211.786 159.759 213.194 158.758 214.446 157.473C215.689 156.196 216.767 154.61 217.476 152.756C217.904 151.585 218.192 150.34 218.291 149.12C218.324 148.811 218.315 148.51 218.332 148.209C218.332 148.063 218.332 147.909 218.332 147.762C218.332 147.616 218.315 147.461 218.307 147.315C218.282 147.022 218.258 146.729 218.233 146.445C218.192 146.16 218.134 145.883 218.085 145.607C218.184 143.695 217.657 141.784 216.751 140.288C215.853 138.775 214.594 137.685 213.416 137.156C213.194 137.059 212.98 136.945 212.75 136.864C211.901 136.546 211.341 136.725 210.987 137.124C210.633 137.53 210.477 138.149 210.477 138.767C210.477 138.946 210.46 139.141 210.452 139.328C210.419 139.897 210.51 140.548 210.658 141.247C210.691 141.426 210.732 141.597 210.782 141.776C210.823 141.955 210.864 142.142 210.913 142.321C211.02 142.679 211.095 143.061 211.218 143.419C211.251 143.671 211.284 143.939 211.35 144.2C211.399 144.468 211.44 144.745 211.523 145.021C211.523 145.2 211.49 145.363 211.498 145.55V145.875L211.58 145.916C211.564 146.339 211.597 146.77 211.58 147.193L211.506 146.965C211.572 147.787 211.498 148.592 211.366 149.356C211.243 150.137 210.987 150.861 210.691 151.569C210.082 152.976 209.16 154.293 207.957 155.529C206.558 157.002 204.623 158.026 202.622 158.36C202.375 158.4 202.12 158.449 201.873 158.457L201.494 158.482H201.305H201.116C200.868 158.474 200.621 158.474 200.366 158.449L199.609 158.352C198.604 158.173 197.624 157.839 196.694 157.367C196.323 157.197 195.961 156.977 195.591 156.774C195.22 156.546 194.858 156.343 194.487 156.091C193.746 155.619 193.005 155.082 192.256 154.521C190.749 153.407 189.218 152.162 187.588 150.983C184.302 148.608 180.894 146.713 177.576 146.038C172.405 142.077 168.074 137.921 162.73 134.033C157.214 130.023 160.005 131.617 154.332 127.852C152.759 126.803 151.335 126.16 150.108 125.827C154.612 122.093 159.083 118.222 163.562 114.139C174.159 104.468 184.36 94.3344 194.018 83.6961C198.843 78.3768 203.536 72.9275 208.032 67.3072C212.527 61.6953 216.842 55.9044 220.81 49.837C223.857 45.1929 226.178 40.8904 227.801 36.9782C228.929 34.2861 229.694 31.7729 230.13 29.4956C231.333 31.4232 232.93 33.619 234.963 36.059C236.075 37.4174 237.318 38.8407 238.702 40.3373C238.874 40.5324 239.048 40.7113 239.221 40.8984C239.311 40.9961 239.393 41.0937 239.483 41.1911C239.574 41.2726 239.649 41.3703 239.73 41.4596C240.06 41.8176 240.407 42.1998 240.735 42.5821C241.428 43.3304 242.142 44.1029 242.901 44.8919C243.717 45.8027 244.499 46.7382 245.306 47.6655C245.701 48.1289 246.12 48.5763 246.49 49.0562C246.869 49.536 247.248 50.0159 247.628 50.4877L249.479 52.8626L251.201 55.3188C252.394 56.9293 253.406 58.6535 254.495 60.3452C255.053 61.1828 255.516 62.0694 256.016 62.9396L257.491 65.5505L258.824 68.2425L259.491 69.5928L259.657 69.9261L259.805 70.2761L260.11 70.9674C260.529 71.9758 260.957 73.0007 261.378 74.0172C261.599 74.5216 261.764 75.0502 261.962 75.5626L262.513 77.1243L263.074 78.6858L263.213 79.0681L263.32 79.4667L263.56 80.2637L264.497 83.4357C264.572 83.6961 264.637 83.9726 264.704 84.2327L264.893 85.0298L265.651 88.2506C265.782 88.7875 265.856 89.3323 265.963 89.8692C266.161 90.9508 266.349 92.0327 266.547 93.1143C266.696 94.2042 266.828 95.2942 266.975 96.3839C266.984 96.8476 267 97.3192 267.042 97.799C267.082 98.2708 267.075 98.7588 267.107 99.2632C267.182 100.41 267.273 101.573 267.37 102.728C267.422 103.899 267.47 105.062 267.536 106.233L267.584 107.104C267.594 107.404 267.619 107.697 267.619 107.982C267.626 108.568 267.626 109.161 267.636 109.747C267.643 110.333 267.659 110.926 267.668 111.52L267.684 112.399C267.684 112.683 267.675 112.984 267.668 113.285C267.643 114.472 267.619 115.652 267.601 116.847V117.287L267.568 117.734L267.519 118.629C267.487 119.222 267.445 119.816 267.412 120.418L267.315 122.215L267.133 124.005L266.952 125.802C266.893 126.396 266.845 126.998 266.745 127.591C266.563 128.787 266.391 129.983 266.226 131.187C266.144 131.78 266.021 132.374 265.898 132.976L265.551 134.757L265.198 136.546L264.753 138.327L264.309 140.101C264.151 140.686 264.021 141.288 263.83 141.865L262.736 145.355C262.562 145.949 262.332 146.518 262.118 147.087L261.469 148.803L260.801 150.519C260.561 151.072 260.299 151.634 260.059 152.203L259.294 153.87L258.908 154.7C258.784 154.976 258.652 155.261 258.512 155.521C257.837 156.79 257.16 158.059 256.479 159.336C256.321 159.661 256.116 159.97 255.935 160.271C255.737 160.588 255.555 160.897 255.367 161.215C254.997 161.833 254.618 162.467 254.239 163.085C254.041 163.403 253.86 163.712 253.671 164.029L253.045 164.94C252.641 165.558 252.222 166.16 251.81 166.778L251.201 167.697L250.88 168.152L250.549 168.608C250.114 169.202 249.67 169.787 249.223 170.389C248.788 170.983 248.335 171.576 247.9 172.17C247.437 172.756 246.944 173.325 246.483 173.895C245.527 175.025 244.622 176.212 243.592 177.286C243.098 177.839 242.589 178.384 242.093 178.937L241.344 179.767C241.221 179.897 241.107 180.043 240.965 180.173L240.579 180.556C240.258 180.881 239.937 181.206 239.616 181.523C238.851 182.288 238.092 183.053 237.343 183.817C237.097 184.061 236.792 184.411 236.717 184.508C236.585 184.663 236.455 184.818 236.322 184.972C236.043 185.281 235.778 185.59 235.499 185.899C234.815 186.542 234.124 187.192 233.407 187.835C231.127 189.933 228.673 192.048 226.088 194.154C222.687 196.92 219.023 199.669 215.047 202.304C211.119 204.899 207.315 207.225 203.536 209.299C199.765 211.365 196.011 213.203 192.174 214.748L190.733 215.317L190.017 215.602C189.77 215.7 189.531 215.773 189.284 215.862C188.312 216.204 187.332 216.546 186.344 216.871C185.34 217.164 184.344 217.457 183.347 217.741L182.977 217.863L182.582 217.953L181.824 218.132C181.314 218.254 180.803 218.376 180.301 218.49C179.996 218.555 179.675 218.628 179.362 218.685H179.346C178.275 218.685 177.205 218.685 176.135 218.685C175.023 218.628 173.854 218.571 172.66 218.555C167.679 218.481 162.64 218.424 157.56 218.335C155.872 218.31 154.176 218.278 152.471 218.237H152.463C152.175 218.172 151.887 218.107 151.598 218.034C146.625 216.79 141.973 215.049 137.503 212.967C136.391 212.43 135.288 211.901 134.184 211.357C133.098 210.763 132.027 210.177 130.941 209.575L130.125 209.128C129.862 208.973 129.599 208.803 129.327 208.648C128.8 208.323 128.273 207.998 127.738 207.672C126.684 207.021 125.613 206.412 124.576 205.679C123.538 204.98 122.485 204.281 121.431 203.581C120.385 202.849 119.372 202.068 118.318 201.328C117.791 200.962 117.273 200.572 116.737 200.198C116.219 199.799 115.7 199.393 115.181 198.986C114.136 198.189 113.082 197.367 112.011 196.554C107.392 192.861 102.798 188.835 98.5167 185.086C97.8332 184.492 97.1579 183.898 96.4912 183.321C95.6184 182.264 94.7126 181.231 93.7905 180.214C93.4283 179.807 93.0577 179.417 92.6871 179.019C92.5966 178.921 92.4978 178.815 92.4073 178.718C91.9297 178.213 91.4521 177.709 90.9664 177.213C89.0561 175.228 87.1048 173.366 85.1782 171.65C84.3631 170.926 83.5478 170.226 82.741 169.56C83.1691 169.421 83.5973 169.283 84.0172 169.145L84.0253 169.153ZM61.7453 198.189C61.7783 198.124 61.8195 198.051 61.8523 197.977C61.877 197.912 61.943 197.823 61.9842 197.758C62.05 197.611 62.2064 197.457 62.3052 197.302L62.5192 197.058L62.6181 196.944L62.7416 196.822L62.9803 196.586C63.0627 196.513 63.1534 196.432 63.252 196.342C63.4251 196.18 63.6307 196.025 63.8285 195.863C64.6354 195.236 65.6069 194.634 66.636 194.081C67.6654 193.528 68.7768 193.016 69.9295 192.52C71.074 192.032 72.2678 191.585 73.5028 191.153C75.9647 190.291 78.5666 189.535 81.259 188.827C82.1318 188.6 82.9962 188.388 83.8607 188.185C84.536 188.014 85.2029 187.859 85.8615 187.705C86.1169 188.006 86.3802 188.315 86.6684 188.648L87.6813 189.795L87.9199 189.893C88.2575 190.259 88.5869 190.633 88.9325 190.999C89.2785 191.373 89.616 191.747 89.9784 192.105C90.7112 192.821 91.444 193.536 92.2014 194.244L91.3039 193.569C92.0367 194.244 92.7613 194.911 93.4859 195.586C93.8481 195.928 94.2022 196.261 94.5728 196.586C94.935 196.928 95.3137 197.237 95.6842 197.562C97.1744 198.839 98.6483 200.1 100.106 201.361C101.629 202.564 103.144 203.76 104.642 204.948L105.202 205.395L105.803 205.81L106.964 206.664C107.755 207.225 108.529 207.778 109.319 208.339C113.971 211.56 118.862 214.496 124.14 217.017C123.267 216.952 122.394 216.879 121.513 216.806C120.69 216.741 119.875 216.668 119.051 216.595C118.854 216.57 118.656 216.554 118.467 216.538C117.009 216.399 115.552 216.253 114.103 216.09C112.991 215.968 111.88 215.838 110.776 215.7C109.994 215.602 109.22 215.497 108.438 215.391C107.705 215.293 106.973 215.196 106.24 215.082C105.235 214.935 104.239 214.789 103.243 214.626C96.0299 213.455 88.6609 211.975 81.473 209.941C77.8915 208.916 74.351 207.77 71.0082 206.347C69.3449 205.631 67.7147 204.874 66.2491 204.004C65.4917 203.573 64.8083 203.101 64.1579 202.63C63.5156 202.15 62.9391 201.637 62.4865 201.125C62.4041 201.044 62.3545 200.954 62.2887 200.865C62.2806 200.848 62.2641 200.824 62.2475 200.808C62.1817 200.547 62.124 200.279 62.0582 200.035L61.6464 198.465C61.6464 198.465 61.6548 198.408 61.6713 198.384C61.696 198.319 61.7125 198.254 61.7453 198.189ZM60.4114 279.888C60.0409 280.133 59.6705 280.391 59.2918 280.636L58.7154 280.987C58.526 281.107 58.3283 281.222 58.1308 281.329C55.5373 282.799 52.6306 283.865 49.5926 284.5C46.2414 285.052 42.7422 284.971 39.4569 284.239C39.1359 284.078 38.7818 283.955 38.4278 283.84C36.7317 283.353 35.0519 282.857 33.3805 282.27L32.7548 282.051C32.5408 281.977 32.3433 281.889 32.1374 281.806L31.5116 281.571L30.8775 281.294C30.6635 281.206 30.4495 281.116 30.2436 281.019L29.6178 280.726C29.1898 280.539 28.7862 280.32 28.3663 280.108C26.703 279.237 25.0728 278.222 23.5661 277.001C22.0594 275.789 20.6762 274.39 19.507 272.827C18.766 271.86 18.0908 270.812 17.4486 269.737C16.8064 268.656 16.23 267.532 15.6784 266.387C14.608 264.077 13.7105 261.676 12.986 259.253C12.5908 256.081 12.1709 252.649 12.1873 248.907C12.1873 247.061 12.2202 245.32 12.3026 243.612C12.3849 241.913 12.5249 240.247 12.7801 238.603C13.0271 236.96 13.4059 235.333 13.9658 233.731C14.5174 232.129 15.2749 230.559 16.2959 229.079C16.9299 228.168 17.6215 227.322 18.3461 226.558C19.0788 225.801 19.8528 225.11 20.6514 224.492C21.4501 223.882 22.2817 223.345 23.1215 222.873C23.9613 222.402 24.826 222.011 25.6986 221.662C26.5714 221.32 27.4607 221.043 28.2923 220.84C29.1402 220.645 30.0131 220.507 30.8859 220.401C31.7668 220.311 32.6561 220.271 33.5536 220.254C34.4592 220.254 35.3732 220.287 36.2953 220.352C38.6583 220.531 41.0462 220.97 43.1868 221.442C43.9691 221.962 44.7182 222.451 45.4512 222.89C46.1839 223.329 46.9167 223.727 47.6164 224.118C48.3245 224.5 49.0408 224.858 49.7407 225.208C50.457 225.549 51.1404 225.891 51.8486 226.2C52.1121 226.314 52.3673 226.452 52.6306 226.582C52.7953 226.663 52.9354 226.72 53.0835 226.777L53.0096 228.087L53.1166 228.323C53.1001 228.819 53.0754 229.315 53.0589 229.811C53.0424 230.315 53.0177 230.82 53.0259 231.324C53.0508 232.341 53.067 233.366 53.1082 234.391L52.9519 233.292C52.9931 234.285 53.0424 235.261 53.0835 236.244C53.1001 236.731 53.1247 237.228 53.1578 237.708C53.174 238.197 53.2317 238.684 53.2648 239.174C53.4295 241.117 53.5942 243.035 53.7505 244.946C53.9894 246.851 54.2281 248.762 54.4586 250.641L54.5409 251.347L54.6726 252.056L54.9031 253.471C55.0678 254.415 55.2325 255.35 55.3972 256.294C56.83 263.784 58.9541 271.219 62.2475 278.563C62.2475 278.57 62.2559 278.586 62.2641 278.596C61.6876 278.986 61.0702 279.417 60.4198 279.879L60.4114 279.888ZM317.036 256.31C316.312 258.733 315.414 261.132 314.344 263.442C313.793 264.589 313.216 265.72 312.574 266.794C311.932 267.867 311.257 268.917 310.515 269.884C309.345 271.445 307.963 272.844 306.456 274.055C304.948 275.267 303.32 276.292 301.657 277.162C301.236 277.375 300.824 277.594 300.405 277.781L299.78 278.074C299.566 278.171 299.352 278.254 299.144 278.351L298.512 278.628L297.884 278.863C297.679 278.944 297.474 279.034 297.267 279.108L296.634 279.327C294.962 279.921 293.273 280.417 291.587 280.897C291.224 281.01 290.877 281.132 290.556 281.294C287.281 282.028 283.78 282.109 280.421 281.555C277.392 280.92 274.477 279.856 271.883 278.383C271.686 278.277 271.488 278.164 271.299 278.042L270.722 277.691C270.343 277.455 269.973 277.188 269.604 276.943C268.738 276.327 267.957 275.789 267.224 275.309C268.103 273.585 268.936 271.835 269.718 270.062C274.97 258.066 277.985 245.159 278.701 232.177C278.734 230.933 278.767 229.738 278.757 228.567C278.757 227.989 278.757 227.412 278.757 226.859C278.757 226.306 278.725 225.793 278.701 225.264C278.667 224.508 278.627 223.776 278.585 223.06C279.146 222.808 279.697 222.54 280.265 222.263C280.956 221.906 281.672 221.556 282.389 221.174C283.098 220.783 283.822 220.393 284.554 219.945C285.296 219.506 286.036 219.018 286.82 218.498C288.96 218.018 291.347 217.587 293.71 217.408C294.641 217.343 295.555 217.302 296.46 217.31C297.358 217.326 298.247 217.367 299.128 217.457C300.001 217.562 300.866 217.701 301.722 217.896C302.552 218.099 303.443 218.376 304.316 218.717C305.179 219.067 306.044 219.457 306.893 219.929C307.733 220.401 308.563 220.938 309.361 221.548C310.162 222.166 310.927 222.849 311.66 223.614C312.392 224.378 313.076 225.216 313.709 226.135C314.73 227.615 315.489 229.185 316.04 230.779C316.601 232.38 316.97 234.001 317.217 235.651C317.464 237.295 317.613 238.952 317.694 240.66C317.778 242.368 317.801 244.102 317.81 245.955C317.827 249.697 317.408 253.129 317.012 256.301L317.036 256.31Z" fill="#DA291C"/>
<path d="M222.325 105.967C223.535 105.116 224.684 104.118 225.733 102.955C227.892 100.551 229.673 97.6691 230.876 94.4228C231.177 93.6156 231.431 92.7736 231.655 91.9142C231.871 91.0551 232.04 90.1697 232.163 89.2757C232.279 88.373 232.349 87.4529 232.356 86.5241C232.356 85.5867 232.295 84.6406 232.156 83.6859C231.94 82.2276 231.454 80.9777 230.845 80.0491C230.236 79.1115 229.526 78.5127 228.879 78.1914C228.771 78.1395 228.671 78.1046 228.57 78.0612C228.501 77.7489 228.393 77.4452 228.285 77.1326C228.162 76.8201 228.015 76.5076 227.838 76.2126C227.483 75.6309 227.013 75.0841 226.427 74.6848C225.91 74.3291 225.309 74.1206 224.715 74.0772C224.075 73.6087 223.304 73.244 222.494 73.0619C221.893 72.8447 221.214 72.7406 220.513 72.7493C220.305 72.7145 220.104 72.6625 219.873 72.6452L219.472 72.6277L219.418 72.7059C218.901 72.6972 218.377 72.7493 217.86 72.8534L218.13 72.7232C216.141 73.1486 214.383 73.8603 212.764 74.8064C211.145 75.7526 209.672 76.9503 208.376 78.4432C206.865 80.2053 205.531 82.0454 204.305 83.9636C203.079 85.8905 201.961 87.8956 200.974 90.0829C200.203 91.8101 199.54 93.7977 199.286 96.046C199.155 97.1657 199.131 98.3373 199.255 99.5438C199.378 100.742 199.648 101.966 200.095 103.137C200.543 104.309 201.182 105.403 201.954 106.332C202.725 107.26 203.627 107.998 204.575 108.519C205.523 109.04 206.495 109.326 207.413 109.404C208.33 109.482 209.194 109.352 209.949 109.083C210.705 109.222 211.461 109.274 212.193 109.274C212.563 109.283 212.926 109.257 213.296 109.248C213.658 109.213 214.021 109.187 214.375 109.135C215.809 108.944 217.19 108.554 218.523 108.033C219.85 107.503 221.13 106.809 222.348 105.976L222.325 105.967ZM216.133 102.512C215.331 103.059 214.476 103.502 213.596 103.745C212.494 104.04 211.345 104.127 210.289 103.971C209.225 103.814 208.276 103.424 207.459 102.851C207.043 102.33 206.665 101.783 206.349 101.141C206.025 100.507 205.763 99.7869 205.57 98.9451C205.215 97.2959 204.999 95.5598 205.076 93.7458C205.153 91.9403 205.539 90.0656 206.503 88.3296C207.713 86.1769 209.356 84.6667 211.044 83.5209C212.563 82.4967 214.152 81.759 215.763 81.0905C215.763 81.0993 215.763 81.1079 215.763 81.1166C215.64 82.3404 215.701 83.5991 215.94 84.8229C215.917 84.9704 215.902 85.1179 215.94 85.2569C216.21 86.5763 217.136 87.6787 218.184 88.3296C218.716 88.6594 219.264 88.9025 219.811 89.0846C220.351 89.2757 220.891 89.3971 221.407 89.5446C222.063 89.7184 222.757 89.8138 223.458 89.7704C224.114 89.7357 224.769 89.5534 225.355 89.2409C225.27 89.7531 225.178 90.2652 225.047 90.786C224.507 92.5305 223.643 94.2144 222.548 95.6727C222.394 95.7941 222.248 95.9243 222.109 96.072C220.883 97.5301 219.726 99.1272 218.354 100.559C217.668 101.271 216.927 101.948 216.133 102.495V102.512Z" fill="#DA291C"/>
<path d="M116.199 179.331C116.672 180.372 117.35 181.358 118.166 182.189C118.982 183.02 119.937 183.68 120.941 184.146C121.945 184.612 122.974 184.868 123.945 184.938C124.917 185.008 125.831 184.892 126.631 184.651C127.431 184.767 128.231 184.822 129.006 184.822C129.398 184.83 129.782 184.806 130.174 184.791C130.557 184.76 130.941 184.736 131.316 184.69C132.835 184.519 134.296 184.169 135.708 183.704C137.112 183.23 138.467 182.616 139.757 181.863C141.038 181.102 142.254 180.209 143.364 179.168C145.65 177.017 147.536 174.438 148.809 171.534C149.128 170.804 149.397 170.058 149.634 169.289C149.862 168.521 150.042 167.728 150.172 166.929C150.295 166.121 150.368 165.298 150.376 164.467C150.376 163.636 150.311 162.781 150.164 161.927C149.936 160.623 149.421 159.504 148.776 158.673C148.132 157.834 147.381 157.298 146.695 157.011C146.581 156.965 146.475 156.934 146.369 156.895C146.295 156.615 146.181 156.343 146.066 156.064C145.936 155.784 145.781 155.512 145.593 155.24C145.218 154.712 144.72 154.231 144.099 153.874C143.552 153.555 142.907 153.369 142.287 153.33C141.618 152.911 140.793 152.584 139.936 152.421C139.3 152.227 138.581 152.134 137.838 152.142C137.618 152.111 137.406 152.064 137.161 152.049L136.736 152.033L136.679 152.103C136.132 152.095 135.577 152.142 135.03 152.235L135.308 152.119C133.202 152.499 131.341 153.136 129.627 153.982C127.912 154.829 126.353 155.901 124.982 157.236C123.382 158.813 121.97 160.459 120.672 162.176C119.374 163.9 118.19 165.694 117.146 167.651C116.329 169.196 115.627 170.983 115.358 172.986C115.227 173.988 115.195 175.036 115.325 176.116C115.456 177.188 115.742 178.283 116.215 179.331H116.199ZM121.496 170.928C121.578 169.313 121.986 167.635 123.007 166.082C124.288 164.156 126.027 162.805 127.815 161.78C129.431 160.855 131.104 160.203 132.81 159.605C132.81 159.613 132.81 159.621 132.81 159.628C132.679 160.723 132.737 161.85 132.998 162.945C132.973 163.077 132.957 163.209 132.998 163.333C133.283 164.513 134.263 165.492 135.373 166.082C135.936 166.377 136.516 166.595 137.096 166.758C137.667 166.936 138.238 167.037 138.785 167.169C139.479 167.325 140.214 167.41 140.957 167.371C141.651 167.34 142.344 167.177 142.965 166.897C142.875 167.356 142.777 167.814 142.638 168.28C142.067 169.841 141.152 171.347 140.001 172.652C139.838 172.761 139.683 172.877 139.536 173.017C138.238 174.322 137.022 175.751 135.561 177.032C134.834 177.669 134.059 178.275 133.21 178.764C132.369 179.254 131.455 179.65 130.525 179.867C129.357 180.131 128.141 180.209 127.023 180.069C125.896 179.929 124.892 179.58 124.027 179.067C123.586 178.601 123.186 178.112 122.851 177.537C122.509 176.97 122.231 176.326 122.027 175.572C121.652 174.097 121.423 172.544 121.505 170.92L121.496 170.928Z" fill="#DA291C"/>
<path d="M161.142 175.635C161.683 176.275 162.428 176.97 163.436 177.61C163.682 177.77 163.952 177.937 164.231 178.097C164.509 178.249 164.813 178.401 165.124 178.553C165.435 178.705 165.763 178.857 166.099 178.993C166.443 179.129 166.803 179.256 167.18 179.384C168.016 179.688 168.868 179.928 169.703 180.184C172.481 180.991 175.307 181.575 178.158 181.951C181.263 182.446 184.41 182.742 187.556 182.87C187.883 182.934 188.227 182.99 188.58 183.006C191.914 183.126 195.33 182.582 198.648 181.719C201.967 180.839 205.186 179.632 208.357 178.449C210.348 177.69 212.355 176.834 214.321 175.843C216.287 174.852 218.172 173.693 219.933 172.413C222.35 171.086 224.767 169.224 227.093 166.929C229.404 164.651 231.01 162.236 232.402 159.822C233.795 157.392 234.984 154.953 236.393 152.331C238.138 149.086 239.685 146.104 241.013 142.994C242.339 139.892 243.388 136.63 243.863 132.937C244.151 130.587 244.142 128.116 243.798 125.95C243.84 125.486 243.863 125.014 243.872 124.559C243.872 124.095 243.83 123.631 243.791 123.184C243.765 122.96 243.742 122.728 243.716 122.512C243.684 122.288 243.635 122.073 243.593 121.849C243.505 121.417 243.398 120.985 243.281 120.578C243.021 119.754 242.725 118.987 242.365 118.307C241.988 117.628 241.611 117.02 241.176 116.517L240.685 115.957C239.48 114.59 238.333 115.357 237.801 116.66L237.573 117.228C237.456 117.524 237.359 117.883 237.284 118.267C237.212 118.659 237.17 119.091 237.154 119.538C237.121 119.994 237.112 120.474 237.131 120.969C237.131 121.089 237.138 121.217 237.147 121.345C237.147 121.473 237.154 121.601 237.154 121.721C237.163 121.977 237.18 122.232 237.203 122.488C237.203 123.16 237.212 123.887 237.31 124.647C237.301 124.879 237.261 125.094 237.252 125.35L237.228 125.782L237.301 125.846C237.301 126.134 237.294 126.414 237.301 126.709C237.301 126.997 237.301 127.285 237.301 127.581L237.219 127.269C237.335 129.507 237.235 131.658 237.024 133.8C236.803 135.943 236.482 138.077 236.114 140.324C235.679 142.962 234.925 145.536 233.86 147.966C232.788 150.397 231.403 152.675 229.74 154.69C228.437 156.281 226.971 157.879 225.414 159.406C223.866 160.933 222.243 162.404 220.638 163.803C219.032 165.202 217.443 166.538 215.96 167.849C214.46 169.152 213.068 170.439 211.871 171.806C210.233 172.541 208.594 173.157 206.931 173.652C205.268 174.132 203.605 174.548 201.909 174.844L201.278 174.963L200.639 175.059C200.213 175.123 199.795 175.187 199.369 175.259C198.517 175.355 197.665 175.491 196.805 175.563C195.093 175.747 193.348 175.859 191.562 175.947C184.196 176.291 176.749 175.291 169.859 172.813C167.229 171.862 165.157 171.358 163.559 171.302C161.978 171.23 160.855 171.638 160.38 172.413C160.143 172.797 160.077 173.277 160.192 173.82C160.315 174.364 160.618 174.996 161.158 175.643L161.142 175.635Z" fill="#DA291C"/>
</g>
<defs>
<clipPath id="clip0_2036_545">
<rect width="328" height="337" fill="white" transform="translate(0 0.965332)"/>
</clipPath>
</defs>
</svg>
